<svg width="336" height="336" viewBox="0 0 336 336" fill="none" xmlns="http://www.w3.org/2000/svg">
<path d="M25.8758 153.064C25.8758 153.064 20.0946 166.845 22.1991 166.911C24.3035 166.976 34.3713 165.364 34.3713 165.364L48.6659 163.403L60.3478 160.878L63.1757 155.671L68.903 143.333L74.5049 134.36L81.1948 124.459L92.7452 111.339C92.7452 111.339 104.786 99.1976 105.312 99.214C105.838 99.2304 106.188 113.906 104.941 123.273C103.695 132.64 102.933 134.764 102.915 135.245C102.897 135.726 100.787 143.955 99.22 149.573C97.6527 155.19 97.7194 161.561 97.7194 161.561C97.4758 166.63 97.2531 174.063 97.2352 174.544C97.2172 175.025 117.305 187.205 117.831 187.221C118.357 187.238 114.597 175.085 114.615 174.604C114.633 174.124 113.957 163.993 113.975 163.512C113.993 163.031 115.057 148.622 115.057 148.622L116.486 138.557C116.486 138.557 117.861 129.934 117.879 129.453C117.897 128.972 119.361 117.945 119.379 117.465C119.397 116.984 120.228 108.826 120.264 107.864C120.3 106.902 120.24 94.3835 120.258 93.9027C120.276 93.4218 113.251 84.0561 113.251 84.0561L104.648 74.6412C104.648 74.6412 98.0242 68.6578 97.4981 68.6414C96.972 68.625 89.9532 73.2205 89.9532 73.2205L82.8986 78.7776L74.176 86.6899L62.6973 97.8862L50.6028 111.47L41.7367 123.23L32.1652 139.781L25.8758 153.064Z" fill="#D9D9D9" stroke="black"/>
<path d="M80.705 274.901C80.705 274.901 90.4448 286.673 91.6185 285.075C92.7923 283.477 96.6195 274.815 96.6195 274.815L102.357 262.689L106.191 252.292L102.85 247.344L94.4217 236.377L89.0523 227.286L83.3958 216.861L77.3209 200.963C77.3209 200.963 72.4135 185.202 72.7069 184.802C73.0004 184.403 86.8135 191.893 94.8524 197.813C102.891 203.733 104.461 205.448 104.898 205.716C105.335 205.984 111.861 211.972 116.249 216.159C120.636 220.345 126.588 223.663 126.588 223.663C131.166 226.532 137.951 230.636 138.388 230.904C138.825 231.172 160.758 222.031 161.051 221.631C161.345 221.232 148.071 217.722 147.634 217.454C147.197 217.186 137.433 212.353 136.996 212.084C136.558 211.816 123.741 203.371 123.741 203.371L115.15 196.94C115.15 196.94 107.87 191.313 107.433 191.045C106.996 190.777 97.5308 183.809 97.0937 183.541C96.6567 183.273 89.5204 178.314 88.6464 177.778C87.7723 177.241 76.1158 170.668 75.6788 170.399C75.2417 170.131 62.8298 170.628 62.8298 170.628L49.5376 172.322C49.5376 172.322 40.4784 174.297 40.1849 174.696C39.8915 175.096 40.4472 182.971 40.4472 182.971L41.8769 191.382L44.6116 202.332L48.9383 217.158L55.1568 233.723L61.3878 246.82L71.6957 262.997L80.705 274.901Z" fill="#D9D9D9" stroke="black"/>
<path d="M232.472 290.726C232.472 290.726 248.362 288.098 247.332 286.419C246.302 284.741 239.574 277.709 239.574 277.709L230.326 267.555L221.907 259.734L215.569 260.225L201.056 262.147L189.758 262.421L177.026 262.328L158.763 260.104C158.763 260.104 141.16 256.99 140.903 256.571C140.645 256.151 154.194 248.267 163.603 244.384C173.012 240.501 175.395 239.995 175.854 239.76C176.313 239.525 185.105 236.906 191.173 235.218C197.241 233.53 203.167 230.174 203.167 230.174C208.035 227.736 215.104 224.055 215.564 223.82C216.023 223.585 217.001 201.57 216.743 201.151C216.486 200.731 207.067 209.971 206.608 210.207C206.148 210.442 197.021 216.223 196.562 216.459C196.103 216.694 182.071 223.334 182.071 223.334L171.914 227.437C171.914 227.437 163.135 230.834 162.675 231.069C162.216 231.304 151.141 235.878 150.682 236.113C150.223 236.348 142.16 239.929 141.241 240.4C140.323 240.871 128.643 247.409 128.184 247.644C127.724 247.88 122.605 258.226 122.605 258.226L118.259 269.832C118.259 269.832 116.096 278.111 116.354 278.531C116.611 278.95 124.55 282.053 124.55 282.053L133.407 284.684L145.332 287.398L161.758 290.563L180.738 292.97L196.337 293.802L216.784 292.699L232.472 290.726Z" fill="#D9D9D9" stroke="black"/>
<path d="M315.124 179.223C315.124 179.223 320.862 165.428 318.758 165.368C316.653 165.307 306.59 166.945 306.59 166.945L292.302 168.944L280.628 171.499L277.816 176.713L272.127 189.066L266.553 198.053L259.893 207.972L248.384 221.121C248.384 221.121 236.381 233.294 235.854 233.279C235.328 233.264 234.933 218.589 236.151 209.219C237.368 199.849 238.124 197.722 238.14 197.241C238.157 196.76 240.241 188.526 241.791 182.905C243.341 177.283 243.254 170.912 243.254 170.912C243.482 165.843 243.682 158.409 243.698 157.928C243.715 157.447 223.589 145.319 223.063 145.304C222.537 145.289 226.335 157.432 226.319 157.913C226.302 158.393 227.009 168.522 226.993 169.003C226.976 169.484 225.957 183.896 225.957 183.896L224.559 193.965C224.559 193.965 223.211 202.591 223.194 203.072C223.178 203.553 221.747 214.584 221.731 215.064C221.714 215.545 220.908 223.706 220.875 224.667C220.843 225.629 220.941 238.148 220.925 238.629C220.908 239.109 227.962 248.457 227.962 248.457L236.594 257.85C236.594 257.85 243.237 263.816 243.763 263.831C244.289 263.846 251.293 259.232 251.293 259.232L258.331 253.657L267.029 245.722L278.473 234.496L290.525 220.881L299.355 209.099L308.876 192.523L315.124 179.223Z" fill="#D9D9D9" stroke="black"/>
<path d="M252.222 57.0839C252.222 57.0839 241.663 45.9168 240.606 47.5811C239.549 49.2455 236.347 58.1174 236.347 58.1174L231.487 70.5595L228.403 81.1628L232.089 85.9008L241.281 96.343L247.288 105.094L253.676 115.161L260.871 130.663C260.871 130.663 266.892 146.098 266.628 146.514C266.364 146.93 252.046 140.279 243.602 134.851C235.158 129.422 233.469 127.804 233.014 127.562C232.559 127.321 225.619 121.734 220.943 117.818C216.266 113.902 210.09 110.946 210.09 110.946C205.318 108.356 198.254 104.665 197.799 104.423C197.344 104.181 176.109 114.61 175.845 115.026C175.581 115.442 189.076 118.154 189.531 118.395C189.987 118.637 200.075 122.878 200.53 123.12C200.986 123.361 214.378 131.025 214.378 131.025L223.41 136.931C223.41 136.931 231.075 142.112 231.531 142.353C231.986 142.595 241.928 148.984 242.383 149.225C242.838 149.467 250.313 153.99 251.223 154.473C252.134 154.957 264.234 160.822 264.689 161.064C265.145 161.305 277.495 160.07 277.495 160.07L290.638 157.587C290.638 157.587 299.537 155.077 299.801 154.661C300.066 154.245 298.95 146.42 298.95 146.42L296.923 138.112L293.413 127.348L288.039 112.812L280.652 96.6518L273.5 83.9546L262.061 68.4254L252.222 57.0839Z" fill="#D9D9D9" stroke="black"/>
<path d="M107.22 46.4249C107.22 46.4249 91.3771 49.2799 92.4357 50.9436C93.4942 52.6073 100.342 59.5423 100.342 59.5423L109.763 69.5628L118.315 77.2618L124.644 76.6809L139.122 74.5515L150.414 74.1151L163.146 74.0269L181.445 75.9889C181.445 75.9889 199.099 78.8505 199.363 79.2664C199.628 79.6823 186.216 87.7587 176.875 91.7758C167.533 95.793 165.159 96.3329 164.704 96.5748C164.249 96.8167 155.503 99.5607 149.465 101.335C143.427 103.11 137.559 106.55 137.559 106.55C132.733 109.058 125.727 112.839 125.272 113.081C124.817 113.323 124.216 135.348 124.481 135.764C124.746 136.18 134.005 126.806 134.46 126.564C134.915 126.322 143.942 120.411 144.397 120.169C144.852 119.928 158.769 113.087 158.769 113.087L168.854 108.84C168.854 108.84 177.575 105.318 178.03 105.076C178.485 104.834 189.481 100.103 189.936 99.8614C190.391 99.6195 198.391 95.9236 199.302 95.4399C200.212 94.9561 211.779 88.2516 212.234 88.0097C212.689 87.7679 217.63 77.3494 217.63 77.3494L221.778 65.6833C221.778 65.6833 223.798 57.3739 223.533 56.958C223.269 56.542 215.278 53.5538 215.278 53.5538L206.377 51.0492L194.407 48.5063L177.928 45.5769L158.909 43.4409L143.299 42.8329L122.873 44.2277L107.22 46.4249Z" fill="#D9D9D9" stroke="black"/>
<path d="M165.703 145.765H174.964L190.588 188.416H180.067L176.917 178.147H163.12L159.844 188.416H149.512L165.703 145.765ZM174.586 170.461C174.166 169.243 173.725 167.983 173.263 166.681C172.843 165.337 172.423 164.035 172.003 162.775C171.625 161.515 171.268 160.339 170.932 159.247C170.596 158.113 170.302 157.168 170.05 156.412C169.798 157.21 169.504 158.176 169.168 159.31C168.832 160.402 168.454 161.578 168.034 162.838C167.656 164.098 167.236 165.379 166.774 166.681C166.354 167.983 165.934 169.243 165.514 170.461H174.586Z" fill="white"/>
</svg>
